<mxfile host="Electron" modified="2024-03-12T19:20:34.561Z" agent="Mozilla/5.0 (Windows NT 10.0; Win64; x64) AppleWebKit/537.36 (KHTML, like Gecko) draw.io/21.7.5 Chrome/114.0.5735.289 Electron/25.8.1 Safari/537.36" etag="MYg2fyjfMRx_ASSMHiiJ" version="21.7.5" type="device">
  <diagram name="Page-1" id="5IFj5sms5ILJR-mnW-l9">
    <mxGraphModel dx="1418" dy="948" grid="1" gridSize="10" guides="1" tooltips="1" connect="1" arrows="1" fold="1" page="1" pageScale="1" pageWidth="1169" pageHeight="827" math="0" shadow="0">
      <root>
        <mxCell id="0" />
        <mxCell id="1" parent="0" />
        <mxCell id="s3BHLCZp-cpzVC67MzIT-1" value="" style="endArrow=doubleBlock;html=1;rounded=0;strokeWidth=5;endFill=1;fillColor=#fad7ac;strokeColor=#b48e04;" edge="1" parent="1">
          <mxGeometry width="50" height="50" relative="1" as="geometry">
            <mxPoint x="400" y="460" as="sourcePoint" />
            <mxPoint x="610" y="460" as="targetPoint" />
          </mxGeometry>
        </mxCell>
      </root>
    </mxGraphModel>
  </diagram>
</mxfile>
